<svg version="1.1" xmlns="http://www.w3.org/2000/svg" xmlns:xlink="http://www.w3.org/1999/xlink" preserveAspectRatio="xMinYMax meet">

  <symbol id="branch"  preserveAspectRatio="xMaxYMax slice">
    <path d="M132,88 C132,82 0,0 0,0 C130,73 117,61 108,54 C91,40 71,28 50,16 C39,11 29,5 15,2 C11,0.64 5,0.88 0,0.88" id="Shape"></path>
    <path d="M132,88 C131,82 127,76 123,72 C86,46 129,77 112,65 C110,64 109,63 108,62 C100,57 93,52 84,49 L82,49" id="Shape"></path>
    <path d="M132,88 C132,84 129,80 127,77 C120,69 111,64 102,58" id="Shape"></path>
    <path d="M132,88 C131,81 122,72 117,68" id="Shape"></path>
    <path d="M132,88 C133,83 125,77 121,74 C106,62 112,63 95,51 C77,38 75,36 65,30" id="Shape"></path>
    <path d="M132,88 C131,81 125,71 121,65" id="Shape"></path>
    <path d="M132,88 C133,85 129,80 128,79 C120,69 111,60 99,52" id="Shape"></path>
    <path d="M132,88 C123,66 98,54 76,41 C68,37 27,19 25,21" id="Shape"></path>
    <path d="M132,88 C133,81 128,75 125,70 C121,64 119,59 115,52" id="Shape"></path>
    <path d="M132,88 C131,73 120,51 111,40 C107,35 103,31 98,26 C95,24 73,11 70,10" id="Shape"></path>
    <path d="M132,88 C132,86 132,84 131,82 C130,73 117,61 108,54 C91,40 71,28 50,16 C39,11 29,5 15,2 C11,1 1,1 0,1" id="Shape"></path>
    <path d="M132,88 C135,76 121,57 115,48" id="Shape"></path>
    <path d="M132,88 C131,82 127,76 123,72 C86,46 129,77 112,65 C110,64 109,63 108,62 C100,57 93,52 84,49 L82,49" id="Shape"></path>
    <path d="M132,88 C132,84 129,80 126,77 C120,69 111,64 102,58" id="Shape"></path>
    <path d="M132,88 C131,81 122,72 117,68" id="Shape"></path>
    <path d="M132,88 C132,83 125,77 121,74 C106,62 112,63 95,51 C77,38 75,36 65,30" id="Shape"></path>
    <path d="M132,88 C132,81 125,71 121,65" id="Shape"></path>
    <path d="M132,88 C133,85 129,80 128,79 C120,69 110,60 99,52" id="Shape"></path>
    <path d="M132,88 C132,66 98,54 76,41 C68,37 27,19 25,21" id="Shape"></path>
    <path d="M132,88 C133,81 128,75 125,70 C121,64 119,59 115,53" id="Shape"></path>
    <path d="M132,88 C132,84 132,86 128,78 C127,75 124,70 122,67 C117,59 118,60 111,51 C109,47 104,43 101,40 C96,37 91,32 85,29 C84,28 77,23 71,20 C55,9 36,0 32,0" id="Shape"></path>
    <path d="M132,88 C131,73 120,51 111,40 C107,35 103,31 98,26 C95,24 74,11 70,10" id="Shape"></path>
  </symbol>

  <symbol id="logo" viewBox="0 0 266 149" preserveAspectRatio="xMinYMin meet">
    <use xlink:href='#branch' transform="translate(0.000000, 61.000000)" fill-rule="nonzero" />
    <use xlink:href='#branch' transform="translate(78.194930, 90.864622) rotate(12.000000) translate(-78.194930, -90.864622) translate(11.694930, 46.864622)" fill-rule="nonzero" />
    <use xlink:href='#branch' transform="translate(79.169229, 89.780818) rotate(14.000000) translate(-79.169229, -89.780818) translate(12.669229, 45.780818)" fill-rule="nonzero" />
    <use xlink:href='#branch' transform="translate(164.711646, 72.553747) scale(-1, 1) rotate(32.000000) translate(-164.711646, -72.553747) translate(98.211646, 28.553747)" fill-rule="nonzero" />
    <use xlink:href='#branch' transform="translate(199.500000, 104.000000) scale(-1, 1) translate(-199.500000, -104.000000) translate(133.000000, 60.000000)" fill-rule="nonzero" />
    <use xlink:href='#branch' transform="translate(188.194930, 91.864622) scale(-1, 1) rotate(12.000000) translate(-188.194930, -91.864622) translate(121.694930, 47.864622)" fill-rule="nonzero"/>
    <use xlink:href='#branch' transform="translate(99.711646, 75.553747) rotate(32.000000) translate(-99.711646, -75.553747) translate(33.211646, 31.553747)" fill-rule="nonzero"/>
  </symbol>


  <symbol id="leaf" viewBox="0 0 133 88" preserveAspectRatio="xMaxYMax slice">
    <use xlink:href='#branch'/>
  </symbol>

  <g fill="hsla(136, 0%, 0%, 0.5)" stroke="black" stroke-width="0.15">
    <!-- <use xlink:href='#branch' height="100%" width="100%"/> -->
    <use xlink:href='#logo'  height="100%" width="100%" />
  </g>

</svg>
