<?xml version="1.0" encoding="UTF-8"?>
<svg viewBox="0 0 1739 3093" version="1.1" xmlns="http://www.w3.org/2000/svg" xmlns:xlink="http://www.w3.org/1999/xlink">
    <g id="Page-1" stroke="none" stroke-width="1" fill="none" fill-rule="evenodd">
        <g id="iPhone-7">
            <g id="background" transform="translate(1050.000000, 1558.000000) rotate(90.000000) translate(-1050.000000, -1558.000000) translate(-508.000000, 412.000000)">
                <rect id="background" fill-opacity="0.192396966" fill="hsla(57, 41%, 69%, 0.9)" x="-2.27450929e-13" y="1" width="3114" height="2190" rx="4"></rect>
                <g id="bottom-left" style="mix-blend-mode: overlay;" transform="translate(637.500000, 1658.500000) scale(1, -1) translate(-637.500000, -1658.500000) translate(5.000000, 1026.000000)" stroke="#F7F7F7" stroke-width="0.5">
                    <g id="tree" transform="translate(470.500000, 632.000000) scale(1, -1) rotate(90.000000) translate(-470.500000, -632.000000) translate(-161.500000, 246.500000)">
                        <path d="M1251.57028,769 C1250.99424,751.144265 1253.79347,733.191399 1249.84216,715.432794 C1232.35996,636.861444 1111.85169,537.190642 1023.17959,472.362618 C861.014792,353.804205 677.921958,244.325124 470.983804,142.500905 C372.390175,93.9877665 274.405793,46.8549452 145.857791,16.5451993 C101.445056,6.0733238 47.3563742,8.17177934 0,8.17177934" id="Path-2"></path>
                        <path d="M1257.57345,769 C1279.04004,666.242208 1152.74368,502.400291 1089,422" id="Path-7"></path>
                        <path d="M1254,769 C1248.30098,720.320712 1211.40978,664.851931 1165.44536,633.878856 C817.433104,399.371146 1227.88347,678.004161 1062.27701,572.128535 C1048.60441,563.387364 1036.84664,552.761535 1023.12783,544.068686 C953.994944,500.263017 881.680379,454.563716 798.585004,429.863768 C792.776872,428.137311 786.916069,426.513449 781,425" id="Path-8"></path>
                        <path d="M1260,768 C1258.87235,733.247294 1226.63671,699.583214 1202.46484,672.903921 C1141.89248,606.04819 1056.44541,558.955362 974,512" id="Path-9"></path>
                        <path d="M1251,768 C1245.19657,706.755579 1163.55473,634.017506 1109,595" id="Path-10"></path>
                        <path d="M1261,767 C1259.34097,723.003185 1188.96292,677.211333 1153.86784,650.511708 C1010.37755,541.347185 1062.98806,555.756612 898.679706,446.848198 C733.255441,337.200122 714.297992,315.809552 613,263" id="Path-11"></path>
                        <path d="M1257,770 C1248.22519,710.72986 1189.42233,618.019812 1146,569" id="Path-14"></path>
                        <path d="M1260,769 C1260,744.924173 1222.8181,701.238579 1214.42113,691.422609 C1137.08377,601.016002 1041.31865,523.278834 937,454" id="Path-15"></path>
                        <path d="M1260,766 C1172.6684,574.677485 928.309815,472.04208 718.986947,359.442933 C647.852128,321.178027 258.130262,170.379746 238,182.715229" id="Path-16"></path>
                        <path d="M1264,767 C1264,710.982237 1212.81872,657.781244 1183.27208,611.664336 C1149.27981,558.60861 1127.26912,515.358524 1094,462" id="Path-17"></path>
                        <path d="M1254,767 C1252.21743,732.35772 1254.72017,753.010455 1219.32705,687.235852 C1202.80967,656.539927 1173.41445,612.580804 1154.32985,583.541396 C1107.75191,512.66772 1119.57985,529.309306 1054.0979,445.471285 C1030.95258,415.837804 991.386662,376.609433 958.599913,354.554811 C911.754503,323.043366 861.061436,282.83895 809.618906,256.669027 C795.163294,249.315146 727.246262,205.647435 676.417886,174.847992 C524.187333,82.6039238 338.714859,-2.84217094e-13 305,-2.84217094e-13" id="Path-18"></path>
                        <path d="M1254,769 C1246.37276,640.379962 1135.4076,447.500258 1055.46705,351.240356 C1017.47049,305.487042 982.171029,268.577678 932.164265,231.301882 C905.409422,211.358418 698.342547,99.5794984 665,88" id="Path-19"></path>
                    </g>
                    <g id="tree" transform="translate(632.000000, 499.500000) scale(-1, -1) translate(-632.000000, -499.500000) translate(-0.000000, 114.000000)">
                        <path d="M1251.57028,769 C1250.99424,751.144265 1253.79347,733.191399 1249.84216,715.432794 C1232.35996,636.861444 1111.85169,537.190642 1023.17959,472.362618 C861.014792,353.804205 677.921958,244.325124 470.983804,142.500905 C372.390175,93.9877665 274.405793,46.8549452 145.857791,16.5451993 C101.445056,6.0733238 47.3563742,8.17177934 -2.27373675e-13,8.17177934" id="Path-2"></path>
                        <path d="M1257.57345,769 C1279.04004,666.242208 1152.74368,502.400291 1089,422" id="Path-7"></path>
                        <path d="M1254,769 C1248.30098,720.320712 1211.40978,664.851931 1165.44536,633.878856 C817.433104,399.371146 1227.88347,678.004161 1062.27701,572.128535 C1048.60441,563.387364 1036.84664,552.761535 1023.12783,544.068686 C953.994944,500.263017 881.680379,454.563716 798.585004,429.863768 C792.776872,428.137311 786.916069,426.513449 781,425" id="Path-8"></path>
                        <path d="M1260,768 C1258.87235,733.247294 1226.63671,699.583214 1202.46484,672.903921 C1141.89248,606.04819 1056.44541,558.955362 974,512" id="Path-9"></path>
                        <path d="M1251,768 C1245.19657,706.755579 1163.55473,634.017506 1109,595" id="Path-10"></path>
                        <path d="M1261,767 C1259.34097,723.003185 1188.96292,677.211333 1153.86784,650.511708 C1010.37755,541.347185 1062.98806,555.756612 898.679706,446.848198 C733.255441,337.200122 714.297992,315.809552 613,263" id="Path-11"></path>
                        <path d="M1260,767 C1258.61904,721.34933 1260.67286,724.207577 1243,685" id="Path-12"></path>
                        <path d="M1257,770 C1248.22519,710.72986 1189.42233,618.019812 1146,569" id="Path-14"></path>
                        <path d="M1260,769 C1260,744.924173 1222.8181,701.238579 1214.42113,691.422609 C1137.08377,601.016002 1041.31865,523.278834 937,454" id="Path-15"></path>
                        <path d="M1260,766 C1172.6684,574.677485 928.309815,472.04208 718.986947,359.442933 C647.852128,321.178027 258.130262,170.379746 238,182.715229" id="Path-16"></path>
                        <path d="M1264,767 C1264,710.982237 1212.81872,657.781244 1183.27208,611.664336 C1149.27981,558.60861 1127.26912,515.358524 1094,462" id="Path-17"></path>
                        <path d="M1254,767 C1252.21743,732.35772 1254.72017,753.010455 1219.32705,687.235852 C1202.80967,656.539927 1173.41445,612.580804 1154.32985,583.541396 C1107.75191,512.66772 1119.57985,529.309306 1054.0979,445.471285 C1030.95258,415.837804 991.386662,376.609433 958.599913,354.554811 C911.754503,323.043366 861.061436,282.83895 809.618906,256.669027 C795.163294,249.315146 727.246262,205.647435 676.417886,174.847992 C524.187333,82.6039238 338.714859,0 305,0" id="Path-18"></path>
                        <path d="M1254,769 C1246.37276,640.379962 1135.4076,447.500258 1055.46705,351.240356 C1017.47049,305.487042 982.171029,268.577678 932.164265,231.301882 C905.409422,211.358418 698.342547,99.5794984 665,88" id="Path-19"></path>
                    </g>
                </g>
                <g id="bottom-right" style="mix-blend-mode: overlay;" transform="translate(2404.000000, 1471.000000)" stroke="#F7F7F7" stroke-width="0.5">
                    <g transform="translate(0.000000, 192.000000)">
                        <path d="M702.758714,527 C702.435265,514.752045 704.007034,502.437464 701.788368,490.256135 C691.972084,436.360938 624.306498,367.992792 574.516974,323.524687 C483.461181,242.200782 380.654262,167.10475 264.458158,97.2594905 C209.097678,63.9824101 154.079291,31.6521438 81.8993824,10.8614902 C56.9615613,3.67841659 26.5906798,5.11783024 0,5.11783024" id="Path-2"></path>
                        <path d="M706.637727,527 C718.689148,456.520592 647.785928,344.144868 612,289" id="Path-7"></path>
                        <path d="M705,527 C701.795057,493.603744 681.048627,455.549581 655.199717,434.300611 C459.488807,273.417414 690.312906,464.572622 597.181149,391.937018 C589.492122,385.940168 582.879928,378.650356 575.164909,372.686656 C536.286797,342.63393 495.61941,311.282084 448.889241,294.336771 C445.622934,293.152341 442.327007,292.038297 439,291" id="Path-8"></path>
                        <path d="M708,527 C707.365206,503.107515 689.218568,479.96346 675.611328,461.621445 C641.512901,415.658131 593.411579,383.281811 547,351" id="Path-9"></path>
                        <path d="M703,527 C699.730459,484.872335 653.735059,434.838631 623,408" id="Path-10"></path>
                        <path d="M708,525 C707.068074,494.883132 667.534727,463.53752 647.820826,445.26099 C567.218251,370.535275 596.771068,380.398871 504.474403,305.848469 C411.550896,230.79175 400.901958,216.149396 344,180" id="Path-11"></path>
                        <path d="M706,528 C701.098754,487.307068 668.253917,423.655393 644,390" id="Path-14"></path>
                        <path d="M708,527 C708,510.490861 687.049206,480.535025 682.317788,473.804075 C638.7407,411.810973 584.780166,358.505486 526,311" id="Path-15"></path>
                        <path d="M708,525 C658.950743,393.957182 521.708252,323.658959 404.143354,246.536256 C364.190921,220.327416 145.306037,117.040922 134,125.489883" id="Path-16"></path>
                        <path d="M710,526 C710,487.614057 681.398696,451.158295 664.887339,419.556873 C645.891659,383.200654 633.591568,353.56371 615,317" id="Path-17"></path>
                        <path d="M705,525 C703.998831,501.287879 705.404478,515.424367 685.526154,470.402637 C676.249267,449.391736 659.73962,419.302376 649.020873,399.425336 C622.860663,350.913368 629.50375,362.304284 592.72622,304.918415 C579.726793,284.634742 557.504837,257.78351 539.090362,242.687452 C512.779926,221.11834 484.308478,193.599021 455.416098,175.686101 C447.297192,170.652479 409.15201,140.762586 380.604566,119.680829 C295.105214,56.5411473 190.935743,0 172,0" id="Path-18"></path>
                        <path d="M705,527 C700.713726,438.798006 638.354694,306.529546 593.430547,240.518717 C572.077642,209.143096 552.240425,183.83227 524.138153,158.27016 C509.102748,144.593805 392.737493,67.9407133 374,60" id="Path-19"></path>
                    </g>
                    <g transform="translate(446.000000, 355.500000) scale(-1, 1) rotate(90.000000) translate(-446.000000, -355.500000) translate(90.500000, 91.500000)">
                        <path d="M702.758714,527 C702.435265,514.752045 704.007034,502.437464 701.788368,490.256135 C691.972084,436.360938 624.306498,367.992792 574.516974,323.524687 C483.461181,242.200782 380.654262,167.10475 264.458158,97.2594905 C209.097678,63.9824101 154.079291,31.6521438 81.8993824,10.8614902 C56.9615613,3.67841659 26.5906798,5.11783024 -2.27706742e-13,5.11783024" id="Path-2"></path>
                        <path d="M706.637727,527 C718.689148,456.520592 647.785928,344.144868 612,289" id="Path-7"></path>
                        <path d="M705,527 C701.795057,493.603744 681.048627,455.549581 655.199717,434.300611 C459.488807,273.417414 690.312906,464.572622 597.181149,391.937018 C589.492122,385.940168 582.879928,378.650356 575.164909,372.686656 C536.286797,342.63393 495.61941,311.282084 448.889241,294.336771 C445.622934,293.152341 442.327007,292.038297 439,291" id="Path-8"></path>
                        <path d="M708,527 C707.365206,503.107515 689.218568,479.96346 675.611328,461.621445 C641.512901,415.658131 593.411579,383.281811 547,351" id="Path-9"></path>
                        <path d="M703,527 C699.730459,484.872335 653.735059,434.838631 623,408" id="Path-10"></path>
                        <path d="M709,525 C708.068074,494.883132 668.534727,463.53752 648.820826,445.26099 C568.218251,370.535275 597.771068,380.398871 505.474403,305.848469 C412.550896,230.79175 401.901958,216.149396 345,180" id="Path-11"></path>
                        <path d="M708,526 C707.268904,494.823933 708.356221,496.775906 699,470" id="Path-12"></path>
                        <path d="M706,528 C701.098754,487.307068 668.253917,423.655393 644,390" id="Path-14"></path>
                        <path d="M708,527 C708,510.490861 687.049206,480.535025 682.317788,473.804075 C638.7407,411.810973 584.780166,358.505486 526,311" id="Path-15"></path>
                        <path d="M708,525 C658.950743,393.957182 521.708252,323.658959 404.143354,246.536256 C364.190921,220.327416 145.306037,117.040922 134,125.489883" id="Path-16"></path>
                        <path d="M710,526 C710,487.614057 681.398696,451.158295 664.887339,419.556873 C645.891659,383.200654 633.591568,353.56371 615,317" id="Path-17"></path>
                        <path d="M705,525 C703.998831,501.287879 705.404478,515.424367 685.526154,470.402637 C676.249267,449.391736 659.73962,419.302376 649.020873,399.425336 C622.860663,350.913368 629.50375,362.304284 592.72622,304.918415 C579.726793,284.634742 557.504837,257.78351 539.090362,242.687452 C512.779926,221.11834 484.308478,193.599021 455.416098,175.686101 C447.297192,170.652479 409.15201,140.762586 380.604566,119.680829 C295.105214,56.5411473 190.935743,0 172,0" id="Path-18"></path>
                        <path d="M705,527 C700.713726,438.798006 638.354694,306.529546 593.430547,240.518717 C572.077642,209.143096 552.240425,183.83227 524.138153,158.27016 C509.102748,144.593805 392.737493,67.9407133 374,60" id="Path-19"></path>
                    </g>
                </g>
                <g id="top_left" style="mix-blend-mode: overlay;" transform="translate(5.000000, 0.000000)" stroke="#F7F7F7" stroke-width="0.5">
                    <g transform="translate(266.000000, 356.500000) scale(1, -1) rotate(90.000000) translate(-266.000000, -356.500000) translate(-89.500000, 92.500000)">
                        <path d="M702.758714,527 C702.435265,514.752045 704.007034,502.437464 701.788368,490.256135 C691.972084,436.360938 624.306498,367.992792 574.516974,323.524687 C483.461181,242.200782 380.654262,167.10475 264.458158,97.2594905 C209.097678,63.9824101 154.079291,31.6521438 81.8993824,10.8614902 C56.9615613,3.67841659 26.5906798,5.11783024 1.13686838e-13,5.11783024" id="Path-2"></path>
                        <path d="M708,525 C658.950743,393.957182 521.708252,323.658959 404.143354,246.536256 C364.190921,220.327416 145.306037,117.040922 134,125.489883" id="Path-16"></path>
                        <path d="M705,525 C703.998831,501.287879 705.404478,515.424367 685.526154,470.402637 C676.249267,449.391736 659.73962,419.302376 649.020873,399.425336 C622.860663,350.913368 629.50375,362.304284 592.72622,304.918415 C579.726793,284.634742 557.504837,257.78351 539.090362,242.687452 C512.779926,221.11834 484.308478,193.599021 455.416098,175.686101 C447.297192,170.652479 409.15201,140.762586 380.604566,119.680829 C295.105214,56.5411473 190.935743,0 172,0" id="Path-18"></path>
                    </g>
                    <g id="tree" transform="translate(356.500000, 266.000000) scale(-1, -1) translate(-356.500000, -266.000000) translate(1.000000, 2.000000)">
                        <path d="M702.758714,527 C702.435265,514.752045 704.007034,502.437464 701.788368,490.256135 C691.972084,436.360938 624.306498,367.992792 574.516974,323.524687 C483.461181,242.200782 380.654262,167.10475 264.458158,97.2594905 C209.097678,63.9824101 154.079291,31.6521438 81.8993824,10.8614902 C56.9615613,3.67841659 26.5906798,5.11783024 5.68434189e-14,5.11783024" id="Path-2"></path>
                        <path d="M705,525 C703.998831,501.287879 705.404478,515.424367 685.526154,470.402637 C676.249267,449.391736 659.73962,419.302376 649.020873,399.425336 C622.860663,350.913368 629.50375,362.304284 592.72622,304.918415 C579.726793,284.634742 557.504837,257.78351 539.090362,242.687452 C512.779926,221.11834 484.308478,193.599021 455.416098,175.686101 C447.297192,170.652479 409.15201,140.762586 380.604566,119.680829 C295.105214,56.5411473 190.935743,0 172,0" id="Path-18"></path>
                        <path d="M705,527 C700.713726,438.798006 638.354694,306.529546 593.430547,240.518717 C572.077642,209.143096 552.240425,183.83227 524.138153,158.27016 C509.102748,144.593805 392.737493,67.9407133 374,60" id="Path-19"></path>
                    </g>
                </g>
                <g id="top-right" style="mix-blend-mode: overlay;" transform="translate(2760.000000, 356.000000) scale(-1, 1) translate(-2760.000000, -356.000000) translate(2404.000000, 0.000000)" stroke="#F7F7F7" stroke-width="0.5">
                    <g transform="translate(266.000000, 356.500000) scale(1, -1) rotate(90.000000) translate(-266.000000, -356.500000) translate(-89.500000, 92.500000)">
                        <path d="M702.758714,527 C702.435265,514.752045 704.007034,502.437464 701.788368,490.256135 C691.972084,436.360938 624.306498,367.992792 574.516974,323.524687 C483.461181,242.200782 380.654262,167.10475 264.458158,97.2594905 C209.097678,63.9824101 154.079291,31.6521438 81.8993824,10.8614902 C56.9615613,3.67841659 26.5906798,5.11783024 -5.68434189e-14,5.11783024" id="Path-2"></path>
                        <path d="M708,525 C658.950743,393.957182 521.708252,323.658959 404.143354,246.536256 C364.190921,220.327416 145.306037,117.040922 134,125.489883" id="Path-16"></path>
                        <path d="M705,525 C703.998831,501.287879 705.404478,515.424367 685.526154,470.402637 C676.249267,449.391736 659.73962,419.302376 649.020873,399.425336 C622.860663,350.913368 629.50375,362.304284 592.72622,304.918415 C579.726793,284.634742 557.504837,257.78351 539.090362,242.687452 C512.779926,221.11834 484.308478,193.599021 455.416098,175.686101 C447.297192,170.652479 409.15201,140.762586 380.604566,119.680829 C295.105214,56.5411473 190.935743,0 172,0" id="Path-18"></path>
                    </g>
                    <g transform="translate(356.500000, 266.000000) scale(-1, -1) translate(-356.500000, -266.000000) translate(1.000000, 2.000000)">
                        <path d="M702.758714,527 C702.435265,514.752045 704.007034,502.437464 701.788368,490.256135 C691.972084,436.360938 624.306498,367.992792 574.516974,323.524687 C483.461181,242.200782 380.654262,167.10475 264.458158,97.2594905 C209.097678,63.9824101 154.079291,31.6521438 81.8993824,10.8614902 C56.9615613,3.67841659 26.5906798,5.11783024 -2.27373675e-13,5.11783024" id="Path-2"></path>
                        <path d="M705,525 C703.998831,501.287879 705.404478,515.424367 685.526154,470.402637 C676.249267,449.391736 659.73962,419.302376 649.020873,399.425336 C622.860663,350.913368 629.50375,362.304284 592.72622,304.918415 C579.726793,284.634742 557.504837,257.78351 539.090362,242.687452 C512.779926,221.11834 484.308478,193.599021 455.416098,175.686101 C447.297192,170.652479 409.15201,140.762586 380.604566,119.680829 C295.105214,56.5411473 190.935743,0 172,0" id="Path-18"></path>
                        <path d="M705,527 C700.713726,438.798006 638.354694,306.529546 593.430547,240.518717 C572.077642,209.143096 552.240425,183.83227 524.138153,158.27016 C509.102748,144.593805 392.737493,67.9407133 374,60" id="Path-19"></path>
                    </g>
                </g>
            </g>
        </g>
    </g>
</svg>
