<?xml version="1.0" encoding="UTF-8"?>
<svg width="133px" height="88px" viewBox="0 0 133 88" version="1.1" xmlns="http://www.w3.org/2000/svg" xmlns:xlink="http://www.w3.org/1999/xlink">
    <title>branch</title>
    <desc>Created with Sketch.</desc>
    <g id="Symbols" stroke="none" stroke-width="1" fill="none" fill-rule="evenodd">
        <g id="branch" fill-rule="nonzero" fill="#000000">
            <g id="Shape">
                <path d="M132,88 L132,82 C130,73 117,61 108,54 C91,40 71,28 50,16 C39,11 29,5 15,2 C11,0.64 5,0.88 0,0.88"></path>
                <path d="M132,88 C135,76 121,57 115,48"></path>
                <path d="M132,88 C131,82 127,76 123,72 C86,46 129,77 112,65 C110,64 109,63 108,62 C100,57 93,52 84,49 L82,49"></path>
                <path d="M132,88 C132,84 129,80 127,77 C120,69 111,64 102,58"></path>
                <path d="M132,88 C131,81 122,72 117,68"></path>
                <path d="M132,88 C133,83 125,77 121,74 C106,62 112,63 95,51 C77,38 75,36 65,30"></path>
                <path d="M132,88 C133,82 133,83 131,78"></path>
                <path d="M132,88 C131,81 125,71 121,65"></path>
                <path d="M132,88 C133,85 129,80 128,79 C120,69 111,60 99,52"></path>
                <path d="M132,88 C123,66 98,54 76,41 C68,37 27,19 25,21"></path>
                <path d="M132,88 C133,81 128,75 125,70 C121,64 119,59 115,52"></path>
                <path d="M132,88 C131,84 132,86 128,78 C127,75 124,70 122,67 C117,59 118,60 111,51 C109,47 104,49 101,40 C96,37 91,33 85,29 C84,28 77,23 71,20 C55,9 36,0 32,0"></path>
                <path d="M132,88 C131,73 120,51 111,40 C107,35 103,31 98,26 C95,24 73,11 70,10"></path>
                <path d="M132,88 C132,86 132,84 131,82 C130,73 117,61 108,54 C91,40 71,28 50,16 C39,11 29,5 15,2 C11,1 1,1 0,1"></path>
                <path d="M132,88 C135,76 121,57 115,48"></path>
                <path d="M132,88 C131,82 127,76 123,72 C86,46 129,77 112,65 C110,64 109,63 108,62 C100,57 93,52 84,49 L82,49"></path>
                <path d="M132,88 C132,84 129,80 126,77 C120,69 111,64 102,58"></path>
                <path d="M132,88 C131,81 122,72 117,68"></path>
                <path d="M132,88 C132,83 125,77 121,74 C106,62 112,63 95,51 C77,38 75,36 65,30"></path>
                <path d="M132,88 C132,82 133,83 131,78"></path>
                <path d="M132,88 C132,81 125,71 121,65"></path>
                <path d="M132,88 C133,85 129,80 128,79 C120,69 110,60 99,52"></path>
                <path d="M132,88 C132,66 98,54 76,41 C68,37 27,19 25,21"></path>
                <path d="M132,88 C133,81 128,75 125,70 C121,64 119,59 115,53"></path>
                <path d="M132,88 C132,84 132,86 128,78 C127,75 124,70 122,67 C117,59 118,60 111,51 C109,47 104,43 101,40 C96,37 91,32 85,29 C84,28 77,23 71,20 C55,9 36,0 32,0"></path>
                <path d="M132,88 C131,73 120,51 111,40 C107,35 103,31 98,26 C95,24 74,11 70,10"></path>
            </g>
        </g>
    </g>
</svg>
